<?xml version="1.0" encoding="utf-8"?>
<!-- Generator: Adobe Illustrator 17.0.0, SVG Export Plug-In . SVG Version: 6.00 Build 0)  -->
<!DOCTYPE svg PUBLIC "-//W3C//DTD SVG 1.1//EN" "http://www.w3.org/Graphics/SVG/1.1/DTD/svg11.dtd">
<svg version="1.1" id="Capa_1" xmlns="http://www.w3.org/2000/svg" xmlns:xlink="http://www.w3.org/1999/xlink" x="0px" y="0px"
	 width="55px" height="163px" viewBox="0 0 55 163" enable-background="new 0 0 55 163" xml:space="preserve">
<polygon fill="#111111" points="55,165.275 55,0 0,0 0,165.261 "/>
<path fill="#CECECE" d="M40.607,127.582c1.54-3.515,1.645-6.481-0.118-8.243c-1.938-1.961-6.69-1.372-11.623,0.955
	c-0.208-0.008-0.414-0.015-0.623-0.015c-3.512,0-6.9,1.259-9.475,3.547c-2.162,1.923-3.675,4.488-4.375,7.364
	c0.492-0.597,3.25-3.844,6.366-5.59c0.061-0.035,0.849-0.445,0.914-0.462c-0.057,0.049-1.594,1.473-1.87,1.751
	c-6.908,6.977-10.938,17.649-7.837,20.83c2.04,2.04,5.778,1.53,10.106-0.796c1.853,0.858,3.939,1.303,6.172,1.303
	c2.927,0,5.695-0.813,8.003-2.353c2.418-1.609,4.244-3.984,5.29-6.871h-7.621c-0.98,1.869-3.269,3.166-5.603,3.166
	c-3.314,0-6.113-2.709-6.119-5.917l-0.011-0.124l-0.016-0.152h0.151h19.77c0.01-0.099,0.02-0.203,0.03-0.314
	c0.047-0.488,0.099-1.045,0.099-1.476C42.221,131.813,41.659,129.563,40.607,127.582z M14.138,147.134
	c-1.535-1.535-1.112-4.584,0.815-8.247c0.895,2.486,2.337,4.61,4.223,6.197c0.606,0.512,1.255,0.963,1.943,1.35
	C17.971,148.066,15.433,148.431,14.138,147.134z M21.509,146.645c0.028,0.015,0.056,0.032,0.083,0.046
	C21.565,146.676,21.536,146.659,21.509,146.645z M34.234,132.257H22.326h-0.148l0.008-0.146c0.159-3.058,3.052-5.641,6.32-5.641
	c3.136,0,5.711,2.477,5.862,5.641l0.008,0.146H34.234z M37.923,124.086c-1.351-1.264-2.957-2.245-4.694-2.893
	c3.151-1.432,5.732-1.626,7.103-0.255c1.139,1.141,0.993,3.243-0.169,5.877c0.002,0.002,0.002,0.002,0.004,0.006
	C39.55,125.822,38.798,124.905,37.923,124.086z M40.404,127.217c-0.006-0.012-0.013-0.025-0.02-0.038
	C40.391,127.192,40.398,127.205,40.404,127.217z"/>
<polygon fill="#111111" points="2684.495,1802.417 2684.495,1597.196 2616.202,1597.196 2616.202,1802.399 "/>
<path fill="#9B9B9B" d="M2666.623,1755.613c1.912-4.364,2.042-8.047-0.146-10.235c-2.406-2.435-8.307-1.704-14.432,1.186
	c-0.258-0.01-0.515-0.019-0.773-0.019c-4.36,0-8.567,1.563-11.765,4.404c-2.685,2.388-4.563,5.573-5.433,9.144
	c0.61-0.741,4.035-4.772,7.904-6.941c0.076-0.044,1.055-0.553,1.135-0.573c-0.07,0.061-1.979,1.829-2.322,2.175
	c-8.577,8.663-13.582,21.914-9.73,25.864c2.533,2.533,7.175,1.9,12.549-0.988c2.301,1.065,4.892,1.618,7.664,1.618
	c3.635,0,7.071-1.01,9.938-2.922c3.002-1.998,5.27-4.947,6.568-8.532h-9.463c-1.217,2.321-4.06,3.931-6.957,3.931
	c-4.115,0-7.591-3.363-7.598-7.347l-0.014-0.153l-0.02-0.188h0.188h24.549c0.013-0.123,0.025-0.252,0.037-0.39
	c0.059-0.606,0.123-1.298,0.123-1.833C2668.627,1760.867,2667.93,1758.073,2666.623,1755.613z M2633.757,1779.892
	c-1.906-1.906-1.381-5.691,1.012-10.24c1.111,3.087,2.901,5.725,5.244,7.695c0.753,0.636,1.559,1.195,2.412,1.676
	C2638.517,1781.048,2635.365,1781.501,2633.757,1779.892z M2642.909,1779.283c0.034,0.019,0.069,0.04,0.104,0.058
	C2642.979,1779.322,2642.943,1779.302,2642.909,1779.283z M2658.71,1761.418h-14.786h-0.184l0.01-0.182
	c0.197-3.797,3.789-7.004,7.848-7.004c3.895,0,7.092,3.076,7.279,7.004l0.01,0.182H2658.71z M2663.291,1751.272
	c-1.678-1.569-3.672-2.788-5.828-3.593c3.912-1.778,7.117-2.02,8.82-0.316c1.414,1.417,1.233,4.027-0.21,7.298
	c0.003,0.003,0.003,0.003,0.005,0.007C2665.311,1753.428,2664.377,1752.289,2663.291,1751.272z M2666.371,1755.16
	c-0.008-0.015-0.017-0.031-0.025-0.047C2666.354,1755.129,2666.363,1755.146,2666.371,1755.16z"/>
<g>
	<text transform="matrix(0 -1 1 0 2647.812 1731.5547)" fill="#9B9B9B" font-family="'MuseoSans-900'" font-size="20.3073">DEVELOPER</text>
	<text transform="matrix(0 -1 1 0 2669.5503 1730.0742)" fill="#9B9B9B" font-family="'MuseoSans-300'" font-size="20.3073">AWARD</text>
</g>
<g>
	<g>
		<path fill="#CECECE" d="M13.762,106.832v-4.155c0-3.68,2.143-6.035,5.823-6.035s5.872,2.355,5.872,6.035v4.155H13.762z
			 M23.003,102.792c0-1.979-1.178-3.189-3.418-3.189c-2.225,0-3.37,1.259-3.37,3.189v1.178h6.789L23.003,102.792L23.003,102.792z"/>
		<path fill="#CECECE" d="M13.762,95.041v-7.328h2.453v4.466h2.127v-3.566h2.453v3.566h2.208v-4.695h2.454v7.558L13.762,95.041
			L13.762,95.041z"/>
		<path fill="#CECECE" d="M13.762,87.306v-3.108l6.657-2.062c0.736-0.229,1.881-0.441,1.881-0.441v-0.032
			c0,0-1.145-0.213-1.881-0.442l-6.657-2.094v-3.059l11.695,4.122v2.978L13.762,87.306z"/>
		<path fill="#CECECE" d="M13.762,75.203v-7.328h2.453v4.466h2.127v-3.566h2.453v3.566h2.208v-4.695h2.454v7.558L13.762,75.203
			L13.762,75.203z"/>
		<path fill="#CECECE" d="M13.762,65.995v-2.862h9.242v-4.776h2.454v7.639L13.762,65.995L13.762,65.995z"/>
		<path fill="#CECECE" d="M13.565,51.962c0-3.533,2.617-6.117,5.97-6.117c3.435,0,6.118,2.584,6.118,6.117s-2.683,6.118-6.118,6.118
			C16.183,58.08,13.565,55.495,13.565,51.962z M23.036,51.962c0-1.75-1.505-3.157-3.5-3.157c-1.914,0-3.353,1.407-3.353,3.157
			s1.439,3.157,3.353,3.157C21.531,55.119,23.036,53.712,23.036,51.962z"/>
		<path fill="#CECECE" d="M13.762,44.309v-4.858c0-2.274,1.668-3.812,4.023-3.812s4.057,1.538,4.057,3.812v1.995h3.615v2.863
			C25.457,44.309,13.762,44.309,13.762,44.309z M19.389,40.04c0-0.998-0.671-1.489-1.604-1.489c-0.932,0-1.57,0.491-1.57,1.439
			v1.456h3.174V40.04z"/>
		<path fill="#CECECE" d="M13.762,34.349v-7.328h2.453v4.465h2.127v-3.565h2.453v3.565h2.208v-4.694h2.454v7.557H13.762z"/>
		<path fill="#CECECE" d="M13.762,25.142v-4.073c0-1.194,0.082-1.767,0.278-2.273c0.507-1.325,1.701-2.159,3.402-2.159
			c1.243,0,2.601,0.589,3.19,1.75h0.032c0,0,0.213-0.163,0.704-0.441l4.089-2.273v3.189l-3.942,2.077v1.342h3.942v2.862
			L13.762,25.142L13.762,25.142z M19.062,21.036c0-0.916-0.507-1.489-1.439-1.489c-0.884,0-1.407,0.327-1.407,1.767v0.965h2.847
			v-1.243H19.062z"/>
	</g>
	<g>
		<path fill="#CECECE" d="M39.3,99.669v4.629l3.664,1.309v1.194l-11.499-4.22v-1.211l11.499-4.22v1.194L39.3,99.669z
			 M32.658,101.992c0,0,0.949,0.245,1.489,0.441l4.171,1.538v-3.959l-4.171,1.505c-0.54,0.196-1.489,0.441-1.489,0.441V101.992z"/>
		<path fill="#CECECE" d="M33.149,90.167c0,0,0.981,0.18,1.718,0.377l8.097,2.191v1.357L31.465,97.07v-1.178l8.931-2.225
			c0.589-0.147,1.228-0.262,1.228-0.262v-0.033c0-0.017-0.639-0.098-1.228-0.262l-8.931-2.421V89.61l8.931-2.421
			c0.589-0.164,1.228-0.246,1.228-0.262v-0.033c0,0-0.639-0.114-1.228-0.262l-8.931-2.307v-1.178l11.499,3.06v1.357l-8.097,2.192
			c-0.736,0.195-1.718,0.376-1.718,0.376S33.149,90.167,33.149,90.167z"/>
		<path fill="#CECECE" d="M39.3,75.987v4.629l3.664,1.309v1.194l-11.499-4.22v-1.211l11.499-4.22v1.194L39.3,75.987z M32.658,78.311
			c0,0,0.949,0.245,1.489,0.441l4.171,1.538v-3.959l-4.171,1.505c-0.54,0.196-1.489,0.441-1.489,0.441V78.311z"/>
		<path fill="#CECECE" d="M31.465,71.999v-3.402c0-1.178,0.114-1.701,0.311-2.16c0.475-1.079,1.57-1.733,2.961-1.733
			c1.554,0,2.748,0.884,3.107,2.176h0.033c0,0,0.146-0.114,0.458-0.295l4.629-2.503v1.293l-4.842,2.601v2.896h4.842v1.129H31.465
			V71.999z M37.107,68.138c0-1.39-0.899-2.273-2.339-2.273c-0.948,0-1.651,0.377-2.012,1.047c-0.18,0.344-0.278,0.753-0.278,1.636
			v2.323h4.629V68.138z"/>
		<path fill="#CECECE" d="M31.465,62.136v-3.713c0-3.451,2.109-5.774,5.741-5.774c3.664,0,5.758,2.323,5.758,5.774v3.713
			C42.964,62.136,31.465,62.136,31.465,62.136z M41.949,58.538c0-2.83-1.668-4.711-4.743-4.711c-3.059,0-4.728,1.897-4.728,4.711
			v2.47h9.471V58.538z"/>
	</g>
</g>
</svg>
